<mxfile host="app.diagrams.net" modified="2023-09-25T17:04:07.680Z" agent="Mozilla/5.0 (Windows NT 10.0; Win64; x64) AppleWebKit/537.36 (KHTML, like Gecko) Chrome/116.0.0.0 Safari/537.36" etag="5x88PDYmfqwwgrpck9-x" version="21.8.1" type="device">
  <diagram name="Page-1" id="M475mSF5QS-H_35Swcxz">
    <mxGraphModel dx="1313" dy="728" grid="1" gridSize="10" guides="1" tooltips="1" connect="1" arrows="1" fold="1" page="1" pageScale="1" pageWidth="827" pageHeight="1169" math="0" shadow="0">
      <root>
        <mxCell id="0" />
        <mxCell id="1" parent="0" />
        <mxCell id="kP1nNTstB0xrHGL76kBe-1" value="Stu_Reg_No" style="rounded=0;whiteSpace=wrap;html=1;" parent="1" vertex="1">
          <mxGeometry x="160" y="120" width="120" height="30" as="geometry" />
        </mxCell>
        <mxCell id="kP1nNTstB0xrHGL76kBe-2" value="Fname" style="rounded=0;whiteSpace=wrap;html=1;" parent="1" vertex="1">
          <mxGeometry x="280" y="120" width="120" height="30" as="geometry" />
        </mxCell>
        <mxCell id="kP1nNTstB0xrHGL76kBe-4" value="EMPLOYEE" style="text;html=1;align=center;verticalAlign=middle;resizable=0;points=[];autosize=1;strokeColor=none;fillColor=none;" parent="1" vertex="1">
          <mxGeometry x="50" y="120" width="90" height="30" as="geometry" />
        </mxCell>
        <mxCell id="kP1nNTstB0xrHGL76kBe-7" value="Lname" style="rounded=0;whiteSpace=wrap;html=1;" parent="1" vertex="1">
          <mxGeometry x="400" y="120" width="120" height="30" as="geometry" />
        </mxCell>
        <mxCell id="kP1nNTstB0xrHGL76kBe-8" value="Address" style="rounded=0;whiteSpace=wrap;html=1;" parent="1" vertex="1">
          <mxGeometry x="520" y="120" width="120" height="30" as="geometry" />
        </mxCell>
        <mxCell id="kP1nNTstB0xrHGL76kBe-9" value="DOB" style="rounded=0;whiteSpace=wrap;html=1;" parent="1" vertex="1">
          <mxGeometry x="640" y="120" width="120" height="30" as="geometry" />
        </mxCell>
        <mxCell id="kP1nNTstB0xrHGL76kBe-10" value="Status" style="rounded=0;whiteSpace=wrap;html=1;" parent="1" vertex="1">
          <mxGeometry x="760" y="120" width="120" height="30" as="geometry" />
        </mxCell>
        <mxCell id="kP1nNTstB0xrHGL76kBe-11" value="Course_code" style="rounded=0;whiteSpace=wrap;html=1;" parent="1" vertex="1">
          <mxGeometry x="160" y="200" width="120" height="30" as="geometry" />
        </mxCell>
        <mxCell id="kP1nNTstB0xrHGL76kBe-12" value="Name" style="rounded=0;whiteSpace=wrap;html=1;" parent="1" vertex="1">
          <mxGeometry x="280" y="200" width="120" height="30" as="geometry" />
        </mxCell>
        <mxCell id="kP1nNTstB0xrHGL76kBe-13" value="Type" style="rounded=0;whiteSpace=wrap;html=1;" parent="1" vertex="1">
          <mxGeometry x="400" y="200" width="120" height="30" as="geometry" />
        </mxCell>
        <mxCell id="kP1nNTstB0xrHGL76kBe-14" value="Lecture_in_charge" style="rounded=0;whiteSpace=wrap;html=1;" parent="1" vertex="1">
          <mxGeometry x="520" y="200" width="120" height="30" as="geometry" />
        </mxCell>
        <mxCell id="kP1nNTstB0xrHGL76kBe-17" value="Stu_Reg_No" style="rounded=0;whiteSpace=wrap;html=1;" parent="1" vertex="1">
          <mxGeometry x="160" y="280" width="120" height="30" as="geometry" />
        </mxCell>
        <mxCell id="kP1nNTstB0xrHGL76kBe-18" value="Lecture_hours" style="rounded=0;whiteSpace=wrap;html=1;" parent="1" vertex="1">
          <mxGeometry x="760" y="200" width="120" height="30" as="geometry" />
        </mxCell>
        <mxCell id="kP1nNTstB0xrHGL76kBe-19" value="Credits" style="rounded=0;whiteSpace=wrap;html=1;" parent="1" vertex="1">
          <mxGeometry x="640" y="200" width="120" height="30" as="geometry" />
        </mxCell>
        <mxCell id="kP1nNTstB0xrHGL76kBe-20" value="Course_code" style="rounded=0;whiteSpace=wrap;html=1;" parent="1" vertex="1">
          <mxGeometry x="280" y="280" width="120" height="30" as="geometry" />
        </mxCell>
        <mxCell id="kP1nNTstB0xrHGL76kBe-21" value="Type" style="rounded=0;whiteSpace=wrap;html=1;" parent="1" vertex="1">
          <mxGeometry x="280" y="440" width="120" height="30" as="geometry" />
        </mxCell>
        <mxCell id="kP1nNTstB0xrHGL76kBe-22" value="Course_Code_" style="rounded=0;whiteSpace=wrap;html=1;" parent="1" vertex="1">
          <mxGeometry x="640" y="360" width="120" height="30" as="geometry" />
        </mxCell>
        <mxCell id="kP1nNTstB0xrHGL76kBe-23" value="Attendence_ID" style="rounded=0;whiteSpace=wrap;html=1;" parent="1" vertex="1">
          <mxGeometry x="160" y="440" width="120" height="30" as="geometry" />
        </mxCell>
        <mxCell id="kP1nNTstB0xrHGL76kBe-24" value="Date" style="rounded=0;whiteSpace=wrap;html=1;" parent="1" vertex="1">
          <mxGeometry x="400" y="360" width="120" height="30" as="geometry" />
        </mxCell>
        <mxCell id="kP1nNTstB0xrHGL76kBe-25" value="CA_Number" style="rounded=0;whiteSpace=wrap;html=1;" parent="1" vertex="1">
          <mxGeometry x="160" y="360" width="120" height="30" as="geometry" />
        </mxCell>
        <mxCell id="kP1nNTstB0xrHGL76kBe-26" value="Type" style="rounded=0;whiteSpace=wrap;html=1;" parent="1" vertex="1">
          <mxGeometry x="280" y="360" width="120" height="30" as="geometry" />
        </mxCell>
        <mxCell id="kP1nNTstB0xrHGL76kBe-27" value="Status" style="rounded=0;whiteSpace=wrap;html=1;" parent="1" vertex="1">
          <mxGeometry x="520" y="360" width="120" height="30" as="geometry" />
        </mxCell>
        <mxCell id="kP1nNTstB0xrHGL76kBe-28" value="Date" style="rounded=0;whiteSpace=wrap;html=1;" parent="1" vertex="1">
          <mxGeometry x="400" y="440" width="120" height="30" as="geometry" />
        </mxCell>
        <mxCell id="kP1nNTstB0xrHGL76kBe-29" value="Lecture_time_per_session" style="rounded=0;whiteSpace=wrap;html=1;" parent="1" vertex="1">
          <mxGeometry x="640" y="440" width="150" height="30" as="geometry" />
        </mxCell>
        <mxCell id="kP1nNTstB0xrHGL76kBe-30" value="No_of_sessions" style="rounded=0;whiteSpace=wrap;html=1;" parent="1" vertex="1">
          <mxGeometry x="520" y="440" width="120" height="30" as="geometry" />
        </mxCell>
        <mxCell id="kP1nNTstB0xrHGL76kBe-31" value="Course_code" style="rounded=0;whiteSpace=wrap;html=1;" parent="1" vertex="1">
          <mxGeometry x="790" y="440" width="120" height="30" as="geometry" />
        </mxCell>
        <mxCell id="kP1nNTstB0xrHGL76kBe-34" value="Stu_Reg_No" style="rounded=0;whiteSpace=wrap;html=1;" parent="1" vertex="1">
          <mxGeometry x="910" y="440" width="120" height="30" as="geometry" />
        </mxCell>
        <mxCell id="kP1nNTstB0xrHGL76kBe-35" value="CA_ID" style="rounded=0;whiteSpace=wrap;html=1;" parent="1" vertex="1">
          <mxGeometry x="160" y="520" width="120" height="30" as="geometry" />
        </mxCell>
        <mxCell id="kP1nNTstB0xrHGL76kBe-36" value="Marks_attained" style="rounded=0;whiteSpace=wrap;html=1;" parent="1" vertex="1">
          <mxGeometry x="280" y="520" width="120" height="30" as="geometry" />
        </mxCell>
        <mxCell id="kP1nNTstB0xrHGL76kBe-37" value="CA_Number" style="rounded=0;whiteSpace=wrap;html=1;" parent="1" vertex="1">
          <mxGeometry x="400" y="520" width="120" height="30" as="geometry" />
        </mxCell>
        <mxCell id="kP1nNTstB0xrHGL76kBe-38" value="Stu_Reg_No" style="rounded=0;whiteSpace=wrap;html=1;" parent="1" vertex="1">
          <mxGeometry x="520" y="520" width="120" height="30" as="geometry" />
        </mxCell>
        <mxCell id="kP1nNTstB0xrHGL76kBe-39" value="Stu_Reg_No" style="rounded=0;whiteSpace=wrap;html=1;" parent="1" vertex="1">
          <mxGeometry x="160" y="600" width="120" height="30" as="geometry" />
        </mxCell>
        <mxCell id="kP1nNTstB0xrHGL76kBe-40" value="Attendence_ID" style="rounded=0;whiteSpace=wrap;html=1;" parent="1" vertex="1">
          <mxGeometry x="280" y="600" width="120" height="30" as="geometry" />
        </mxCell>
        <mxCell id="kP1nNTstB0xrHGL76kBe-41" value="Final_marks_ID" style="rounded=0;whiteSpace=wrap;html=1;" parent="1" vertex="1">
          <mxGeometry x="160" y="680" width="120" height="30" as="geometry" />
        </mxCell>
        <mxCell id="kP1nNTstB0xrHGL76kBe-42" value="Eligibility_ID" style="rounded=0;whiteSpace=wrap;html=1;" parent="1" vertex="1">
          <mxGeometry x="520" y="600" width="120" height="30" as="geometry" />
        </mxCell>
        <mxCell id="kP1nNTstB0xrHGL76kBe-43" value="CA_ID" style="rounded=0;whiteSpace=wrap;html=1;" parent="1" vertex="1">
          <mxGeometry x="400" y="600" width="120" height="30" as="geometry" />
        </mxCell>
        <mxCell id="kP1nNTstB0xrHGL76kBe-44" value="Status" style="rounded=0;whiteSpace=wrap;html=1;" parent="1" vertex="1">
          <mxGeometry x="640" y="600" width="120" height="30" as="geometry" />
        </mxCell>
        <mxCell id="kP1nNTstB0xrHGL76kBe-45" value="Marks" style="rounded=0;whiteSpace=wrap;html=1;" parent="1" vertex="1">
          <mxGeometry x="280" y="680" width="120" height="30" as="geometry" />
        </mxCell>
        <mxCell id="kP1nNTstB0xrHGL76kBe-46" value="CGPA_value" style="rounded=0;whiteSpace=wrap;html=1;" parent="1" vertex="1">
          <mxGeometry x="400" y="680" width="120" height="30" as="geometry" />
        </mxCell>
        <mxCell id="kP1nNTstB0xrHGL76kBe-47" value="SGPA_value" style="rounded=0;whiteSpace=wrap;html=1;" parent="1" vertex="1">
          <mxGeometry x="520" y="680" width="120" height="30" as="geometry" />
        </mxCell>
        <mxCell id="kP1nNTstB0xrHGL76kBe-48" value="Stu_Reg_No" style="rounded=0;whiteSpace=wrap;html=1;" parent="1" vertex="1">
          <mxGeometry x="640" y="680" width="120" height="30" as="geometry" />
        </mxCell>
        <mxCell id="kP1nNTstB0xrHGL76kBe-49" value="Stu_Reg_No" style="rounded=0;whiteSpace=wrap;html=1;" parent="1" vertex="1">
          <mxGeometry x="160" y="760" width="120" height="30" as="geometry" />
        </mxCell>
        <mxCell id="kP1nNTstB0xrHGL76kBe-50" value="Phone_Number" style="rounded=0;whiteSpace=wrap;html=1;" parent="1" vertex="1">
          <mxGeometry x="280" y="760" width="120" height="30" as="geometry" />
        </mxCell>
        <mxCell id="kP1nNTstB0xrHGL76kBe-51" value="Staff_ID" style="rounded=0;whiteSpace=wrap;html=1;" parent="1" vertex="1">
          <mxGeometry x="160" y="840" width="120" height="30" as="geometry" />
        </mxCell>
        <mxCell id="kP1nNTstB0xrHGL76kBe-52" value="Start_work_date" style="rounded=0;whiteSpace=wrap;html=1;" parent="1" vertex="1">
          <mxGeometry x="760" y="840" width="120" height="30" as="geometry" />
        </mxCell>
        <mxCell id="kP1nNTstB0xrHGL76kBe-53" value="Designation" style="rounded=0;whiteSpace=wrap;html=1;" parent="1" vertex="1">
          <mxGeometry x="640" y="840" width="120" height="30" as="geometry" />
        </mxCell>
        <mxCell id="kP1nNTstB0xrHGL76kBe-54" value="E-mail" style="rounded=0;whiteSpace=wrap;html=1;" parent="1" vertex="1">
          <mxGeometry x="520" y="840" width="120" height="30" as="geometry" />
        </mxCell>
        <mxCell id="kP1nNTstB0xrHGL76kBe-55" value="Lname" style="rounded=0;whiteSpace=wrap;html=1;" parent="1" vertex="1">
          <mxGeometry x="400" y="840" width="120" height="30" as="geometry" />
        </mxCell>
        <mxCell id="kP1nNTstB0xrHGL76kBe-56" value="Fname" style="rounded=0;whiteSpace=wrap;html=1;" parent="1" vertex="1">
          <mxGeometry x="280" y="840" width="120" height="30" as="geometry" />
        </mxCell>
        <mxCell id="kP1nNTstB0xrHGL76kBe-57" value="Department" style="rounded=0;whiteSpace=wrap;html=1;" parent="1" vertex="1">
          <mxGeometry x="880" y="840" width="120" height="30" as="geometry" />
        </mxCell>
        <mxCell id="kP1nNTstB0xrHGL76kBe-58" value="Staff_ID" style="rounded=0;whiteSpace=wrap;html=1;" parent="1" vertex="1">
          <mxGeometry x="160" y="920" width="120" height="30" as="geometry" />
        </mxCell>
        <mxCell id="kP1nNTstB0xrHGL76kBe-59" value="Phone_Number" style="rounded=0;whiteSpace=wrap;html=1;" parent="1" vertex="1">
          <mxGeometry x="280" y="920" width="120" height="30" as="geometry" />
        </mxCell>
        <mxCell id="kP1nNTstB0xrHGL76kBe-60" value="COURSE_UNIT" style="text;html=1;align=center;verticalAlign=middle;resizable=0;points=[];autosize=1;strokeColor=none;fillColor=none;" parent="1" vertex="1">
          <mxGeometry x="35" y="200" width="110" height="30" as="geometry" />
        </mxCell>
        <mxCell id="kP1nNTstB0xrHGL76kBe-61" value="ENROLLS" style="text;html=1;align=center;verticalAlign=middle;resizable=0;points=[];autosize=1;strokeColor=none;fillColor=none;" parent="1" vertex="1">
          <mxGeometry x="55" y="280" width="80" height="30" as="geometry" />
        </mxCell>
        <mxCell id="kP1nNTstB0xrHGL76kBe-62" value="CA_EXAM" style="text;html=1;align=center;verticalAlign=middle;resizable=0;points=[];autosize=1;strokeColor=none;fillColor=none;" parent="1" vertex="1">
          <mxGeometry x="60" y="360" width="80" height="30" as="geometry" />
        </mxCell>
        <mxCell id="kP1nNTstB0xrHGL76kBe-63" value="ATTENDENCE" style="text;html=1;align=center;verticalAlign=middle;resizable=0;points=[];autosize=1;strokeColor=none;fillColor=none;" parent="1" vertex="1">
          <mxGeometry x="35" y="440" width="100" height="30" as="geometry" />
        </mxCell>
        <mxCell id="kP1nNTstB0xrHGL76kBe-64" value="CA_MARKS" style="text;html=1;align=center;verticalAlign=middle;resizable=0;points=[];autosize=1;strokeColor=none;fillColor=none;" parent="1" vertex="1">
          <mxGeometry x="45" y="520" width="90" height="30" as="geometry" />
        </mxCell>
        <mxCell id="kP1nNTstB0xrHGL76kBe-65" value="FINAL_EXAM_SIT" style="text;html=1;align=center;verticalAlign=middle;resizable=0;points=[];autosize=1;strokeColor=none;fillColor=none;" parent="1" vertex="1">
          <mxGeometry x="20" y="600" width="120" height="30" as="geometry" />
        </mxCell>
        <mxCell id="kP1nNTstB0xrHGL76kBe-66" value="FINAL_MARKS" style="text;html=1;align=center;verticalAlign=middle;resizable=0;points=[];autosize=1;strokeColor=none;fillColor=none;" parent="1" vertex="1">
          <mxGeometry x="35" y="680" width="110" height="30" as="geometry" />
        </mxCell>
        <mxCell id="kP1nNTstB0xrHGL76kBe-67" value="STUDENT_PHONE" style="text;html=1;align=center;verticalAlign=middle;resizable=0;points=[];autosize=1;strokeColor=none;fillColor=none;" parent="1" vertex="1">
          <mxGeometry x="20" y="760" width="130" height="30" as="geometry" />
        </mxCell>
        <mxCell id="kP1nNTstB0xrHGL76kBe-68" value="STAFF" style="text;html=1;align=center;verticalAlign=middle;resizable=0;points=[];autosize=1;strokeColor=none;fillColor=none;" parent="1" vertex="1">
          <mxGeometry x="80" y="840" width="60" height="30" as="geometry" />
        </mxCell>
        <mxCell id="kP1nNTstB0xrHGL76kBe-69" value="STAFF_PHONE" style="text;html=1;align=center;verticalAlign=middle;resizable=0;points=[];autosize=1;strokeColor=none;fillColor=none;" parent="1" vertex="1">
          <mxGeometry x="35" y="920" width="110" height="30" as="geometry" />
        </mxCell>
        <mxCell id="kP1nNTstB0xrHGL76kBe-72" value="" style="line;strokeWidth=2;html=1;" parent="1" vertex="1">
          <mxGeometry x="180" y="140" width="80" height="10" as="geometry" />
        </mxCell>
        <mxCell id="kP1nNTstB0xrHGL76kBe-73" value="" style="line;strokeWidth=2;html=1;" parent="1" vertex="1">
          <mxGeometry x="180" y="380" width="80" height="10" as="geometry" />
        </mxCell>
        <mxCell id="kP1nNTstB0xrHGL76kBe-74" value="" style="line;strokeWidth=2;html=1;" parent="1" vertex="1">
          <mxGeometry x="300" y="300" width="80" height="10" as="geometry" />
        </mxCell>
        <mxCell id="kP1nNTstB0xrHGL76kBe-75" value="" style="line;strokeWidth=2;html=1;" parent="1" vertex="1">
          <mxGeometry x="180" y="300" width="80" height="10" as="geometry" />
        </mxCell>
        <mxCell id="kP1nNTstB0xrHGL76kBe-76" value="" style="line;strokeWidth=2;html=1;" parent="1" vertex="1">
          <mxGeometry x="180" y="218" width="80" height="10" as="geometry" />
        </mxCell>
        <mxCell id="kP1nNTstB0xrHGL76kBe-77" value="" style="line;strokeWidth=2;html=1;" parent="1" vertex="1">
          <mxGeometry x="180" y="620" width="80" height="10" as="geometry" />
        </mxCell>
        <mxCell id="kP1nNTstB0xrHGL76kBe-78" value="" style="line;strokeWidth=2;html=1;" parent="1" vertex="1">
          <mxGeometry x="180" y="540" width="80" height="10" as="geometry" />
        </mxCell>
        <mxCell id="kP1nNTstB0xrHGL76kBe-79" value="" style="line;strokeWidth=2;html=1;" parent="1" vertex="1">
          <mxGeometry x="180" y="460" width="80" height="10" as="geometry" />
        </mxCell>
        <mxCell id="kP1nNTstB0xrHGL76kBe-80" value="" style="line;strokeWidth=2;html=1;" parent="1" vertex="1">
          <mxGeometry x="420" y="620" width="80" height="10" as="geometry" />
        </mxCell>
        <mxCell id="kP1nNTstB0xrHGL76kBe-81" value="" style="line;strokeWidth=2;html=1;" parent="1" vertex="1">
          <mxGeometry x="300" y="620" width="80" height="10" as="geometry" />
        </mxCell>
        <mxCell id="kP1nNTstB0xrHGL76kBe-82" value="" style="line;strokeWidth=2;html=1;" parent="1" vertex="1">
          <mxGeometry x="180" y="700" width="80" height="10" as="geometry" />
        </mxCell>
        <mxCell id="kP1nNTstB0xrHGL76kBe-83" value="" style="line;strokeWidth=2;html=1;" parent="1" vertex="1">
          <mxGeometry x="540" y="620" width="80" height="10" as="geometry" />
        </mxCell>
        <mxCell id="kP1nNTstB0xrHGL76kBe-84" value="" style="line;strokeWidth=2;html=1;" parent="1" vertex="1">
          <mxGeometry x="300" y="780" width="80" height="10" as="geometry" />
        </mxCell>
        <mxCell id="kP1nNTstB0xrHGL76kBe-85" value="" style="line;strokeWidth=2;html=1;" parent="1" vertex="1">
          <mxGeometry x="180" y="780" width="80" height="10" as="geometry" />
        </mxCell>
        <mxCell id="kP1nNTstB0xrHGL76kBe-86" value="" style="line;strokeWidth=2;html=1;" parent="1" vertex="1">
          <mxGeometry x="180" y="940" width="80" height="10" as="geometry" />
        </mxCell>
        <mxCell id="kP1nNTstB0xrHGL76kBe-87" value="" style="line;strokeWidth=2;html=1;" parent="1" vertex="1">
          <mxGeometry x="180" y="860" width="80" height="10" as="geometry" />
        </mxCell>
        <mxCell id="kP1nNTstB0xrHGL76kBe-88" value="" style="line;strokeWidth=2;html=1;" parent="1" vertex="1">
          <mxGeometry x="300" y="940" width="80" height="10" as="geometry" />
        </mxCell>
        <mxCell id="kP1nNTstB0xrHGL76kBe-90" value="" style="endArrow=classic;html=1;rounded=0;entryX=0.5;entryY=1;entryDx=0;entryDy=0;exitX=0.673;exitY=-0.093;exitDx=0;exitDy=0;exitPerimeter=0;" parent="1" source="kP1nNTstB0xrHGL76kBe-34" target="kP1nNTstB0xrHGL76kBe-1" edge="1">
          <mxGeometry width="50" height="50" relative="1" as="geometry">
            <mxPoint x="990" y="430" as="sourcePoint" />
            <mxPoint x="210" y="170" as="targetPoint" />
            <Array as="points">
              <mxPoint x="990" y="170" />
              <mxPoint x="220" y="170" />
            </Array>
          </mxGeometry>
        </mxCell>
        <mxCell id="kP1nNTstB0xrHGL76kBe-91" value="" style="endArrow=classic;html=1;rounded=0;entryX=0.583;entryY=1;entryDx=0;entryDy=0;entryPerimeter=0;exitX=0.67;exitY=-0.12;exitDx=0;exitDy=0;exitPerimeter=0;" parent="1" source="kP1nNTstB0xrHGL76kBe-17" target="kP1nNTstB0xrHGL76kBe-1" edge="1">
          <mxGeometry width="50" height="50" relative="1" as="geometry">
            <mxPoint x="230" y="260" as="sourcePoint" />
            <mxPoint x="440" y="280" as="targetPoint" />
            <Array as="points">
              <mxPoint x="240" y="260" />
              <mxPoint x="950" y="260" />
              <mxPoint x="950" y="190" />
              <mxPoint x="230" y="190" />
            </Array>
          </mxGeometry>
        </mxCell>
        <mxCell id="kP1nNTstB0xrHGL76kBe-92" value="" style="endArrow=classic;html=1;rounded=0;entryX=0.75;entryY=1;entryDx=0;entryDy=0;exitX=1;exitY=0.5;exitDx=0;exitDy=0;" parent="1" source="kP1nNTstB0xrHGL76kBe-38" target="kP1nNTstB0xrHGL76kBe-1" edge="1">
          <mxGeometry width="50" height="50" relative="1" as="geometry">
            <mxPoint x="960" y="490" as="sourcePoint" />
            <mxPoint x="440" y="280" as="targetPoint" />
            <Array as="points">
              <mxPoint x="1070" y="535" />
              <mxPoint x="1070" y="180" />
              <mxPoint x="250" y="180" />
            </Array>
          </mxGeometry>
        </mxCell>
        <mxCell id="kP1nNTstB0xrHGL76kBe-93" value="" style="endArrow=classic;html=1;rounded=0;entryX=0.5;entryY=1;entryDx=0;entryDy=0;" parent="1" source="kP1nNTstB0xrHGL76kBe-20" target="kP1nNTstB0xrHGL76kBe-11" edge="1">
          <mxGeometry width="50" height="50" relative="1" as="geometry">
            <mxPoint x="390" y="330" as="sourcePoint" />
            <mxPoint x="440" y="280" as="targetPoint" />
            <Array as="points">
              <mxPoint x="340" y="250" />
              <mxPoint x="220" y="250" />
            </Array>
          </mxGeometry>
        </mxCell>
        <mxCell id="kP1nNTstB0xrHGL76kBe-94" value="" style="endArrow=classic;html=1;rounded=0;entryX=0.67;entryY=1.053;entryDx=0;entryDy=0;entryPerimeter=0;exitX=0.5;exitY=0;exitDx=0;exitDy=0;" parent="1" source="kP1nNTstB0xrHGL76kBe-22" target="kP1nNTstB0xrHGL76kBe-11" edge="1">
          <mxGeometry width="50" height="50" relative="1" as="geometry">
            <mxPoint x="390" y="330" as="sourcePoint" />
            <mxPoint x="440" y="280" as="targetPoint" />
            <Array as="points">
              <mxPoint x="700" y="240" />
              <mxPoint x="240" y="240" />
            </Array>
          </mxGeometry>
        </mxCell>
        <mxCell id="kP1nNTstB0xrHGL76kBe-96" value="" style="endArrow=classic;html=1;rounded=0;entryX=0.31;entryY=1.133;entryDx=0;entryDy=0;entryPerimeter=0;exitX=0.407;exitY=0.093;exitDx=0;exitDy=0;exitPerimeter=0;" parent="1" source="kP1nNTstB0xrHGL76kBe-31" target="kP1nNTstB0xrHGL76kBe-11" edge="1">
          <mxGeometry width="50" height="50" relative="1" as="geometry">
            <mxPoint x="840" y="430" as="sourcePoint" />
            <mxPoint x="270" y="340" as="targetPoint" />
            <Array as="points">
              <mxPoint x="840" y="270" />
              <mxPoint x="197" y="270" />
            </Array>
          </mxGeometry>
        </mxCell>
        <mxCell id="kP1nNTstB0xrHGL76kBe-97" value="" style="endArrow=classic;html=1;rounded=0;entryX=0.5;entryY=1;entryDx=0;entryDy=0;entryPerimeter=0;exitX=0.5;exitY=1;exitDx=0;exitDy=0;exitPerimeter=0;" parent="1" source="kP1nNTstB0xrHGL76kBe-81" target="kP1nNTstB0xrHGL76kBe-79" edge="1">
          <mxGeometry width="50" height="50" relative="1" as="geometry">
            <mxPoint x="330" y="650" as="sourcePoint" />
            <mxPoint x="440" y="480" as="targetPoint" />
            <Array as="points">
              <mxPoint x="340" y="650" />
              <mxPoint x="850" y="650" />
              <mxPoint x="850" y="500" />
              <mxPoint x="220" y="500" />
            </Array>
          </mxGeometry>
        </mxCell>
        <mxCell id="kP1nNTstB0xrHGL76kBe-98" value="" style="endArrow=classic;html=1;rounded=0;entryX=0.625;entryY=1;entryDx=0;entryDy=0;entryPerimeter=0;exitX=0.5;exitY=0;exitDx=0;exitDy=0;" parent="1" source="kP1nNTstB0xrHGL76kBe-37" target="kP1nNTstB0xrHGL76kBe-73" edge="1">
          <mxGeometry width="50" height="50" relative="1" as="geometry">
            <mxPoint x="450" y="490" as="sourcePoint" />
            <mxPoint x="220" y="420" as="targetPoint" />
            <Array as="points">
              <mxPoint x="460" y="490" />
              <mxPoint x="570" y="490" />
              <mxPoint x="1060" y="490" />
              <mxPoint x="1060" y="420" />
              <mxPoint x="230" y="420" />
            </Array>
          </mxGeometry>
        </mxCell>
        <mxCell id="kP1nNTstB0xrHGL76kBe-99" value="" style="endArrow=classic;html=1;rounded=0;entryX=0.5;entryY=1;entryDx=0;entryDy=0;" parent="1" target="kP1nNTstB0xrHGL76kBe-35" edge="1">
          <mxGeometry width="50" height="50" relative="1" as="geometry">
            <mxPoint x="470" y="600" as="sourcePoint" />
            <mxPoint x="440" y="380" as="targetPoint" />
            <Array as="points">
              <mxPoint x="470" y="570" />
              <mxPoint x="220" y="570" />
            </Array>
          </mxGeometry>
        </mxCell>
        <mxCell id="kP1nNTstB0xrHGL76kBe-101" value="" style="endArrow=classic;html=1;rounded=0;entryX=0.25;entryY=1;entryDx=0;entryDy=0;exitX=1;exitY=0.5;exitDx=0;exitDy=0;" parent="1" source="kP1nNTstB0xrHGL76kBe-48" target="kP1nNTstB0xrHGL76kBe-1" edge="1">
          <mxGeometry width="50" height="50" relative="1" as="geometry">
            <mxPoint x="810" y="700" as="sourcePoint" />
            <mxPoint x="440" y="280" as="targetPoint" />
            <Array as="points">
              <mxPoint x="1090" y="695" />
              <mxPoint x="1090" y="180" />
              <mxPoint x="190" y="180" />
            </Array>
          </mxGeometry>
        </mxCell>
        <mxCell id="kP1nNTstB0xrHGL76kBe-102" value="" style="endArrow=classic;html=1;rounded=0;entryX=0.445;entryY=0.68;entryDx=0;entryDy=0;entryPerimeter=0;" parent="1" target="kP1nNTstB0xrHGL76kBe-87" edge="1">
          <mxGeometry width="50" height="50" relative="1" as="geometry">
            <mxPoint x="216" y="920" as="sourcePoint" />
            <mxPoint x="440" y="780" as="targetPoint" />
          </mxGeometry>
        </mxCell>
        <mxCell id="kP1nNTstB0xrHGL76kBe-103" value="" style="endArrow=classic;html=1;rounded=0;" parent="1" source="kP1nNTstB0xrHGL76kBe-77" edge="1">
          <mxGeometry width="50" height="50" relative="1" as="geometry">
            <mxPoint x="210" y="660" as="sourcePoint" />
            <mxPoint x="200" y="150" as="targetPoint" />
            <Array as="points">
              <mxPoint x="220" y="660" />
              <mxPoint x="1120" y="660" />
              <mxPoint x="1120" y="190" />
              <mxPoint x="200" y="190" />
            </Array>
          </mxGeometry>
        </mxCell>
        <mxCell id="kP1nNTstB0xrHGL76kBe-104" value="" style="endArrow=classic;html=1;rounded=0;" parent="1" source="kP1nNTstB0xrHGL76kBe-85" edge="1">
          <mxGeometry width="50" height="50" relative="1" as="geometry">
            <mxPoint x="200" y="820" as="sourcePoint" />
            <mxPoint x="173" y="150" as="targetPoint" />
            <Array as="points">
              <mxPoint x="220" y="820" />
              <mxPoint x="1160" y="820" />
              <mxPoint x="1160" y="190" />
              <mxPoint x="173" y="190" />
            </Array>
          </mxGeometry>
        </mxCell>
      </root>
    </mxGraphModel>
  </diagram>
</mxfile>
